<svg width="34" height="34" viewBox="0 0 34 34" fill="none" xmlns="http://www.w3.org/2000/svg">
<path fill-rule="evenodd" clip-rule="evenodd" d="M6.8 0C3.04446 0 0 3.04446 0 6.8V27.2C0 30.9555 3.04446 34 6.8 34H27.2C30.9555 34 34 30.9555 34 27.2V6.8C34 3.04446 30.9555 0 27.2 0H6.8ZM26.723 10.3387C26.9538 10.954 27.1077 11.7233 27.1846 12.8002C27.1846 13.2138 27.1959 13.5253 27.2099 13.909V13.909V13.909C27.2323 14.5244 27.2615 15.3254 27.2615 17.031C27.2615 19.8002 27.2615 20.1848 27.1846 21.2617C27.1846 22.3387 26.9538 23.1079 26.723 23.7233C26.1846 25.1079 25.1077 26.1848 23.723 26.7233C23.1077 26.954 22.3384 27.1079 21.2615 27.1848C20.1846 27.2617 19.8 27.2617 17.0307 27.2617C14.2615 27.2617 13.8769 27.2617 12.8 27.1848C11.723 27.1848 10.9538 26.954 10.3384 26.7233C9.64612 26.4925 9.03073 26.1079 8.49227 25.5694C8.03073 25.031 7.56919 24.4156 7.33841 23.7233C7.10764 23.1079 6.95379 22.3387 6.87687 21.2617C6.79995 20.1849 6.79995 19.8003 6.79995 17.0318V17.031V17.0301C6.79995 14.2617 6.79995 13.877 6.87687 12.8002C6.87687 11.7233 7.10764 10.954 7.33841 10.3387C7.56919 9.64635 7.95381 9.03096 8.49227 8.4925C9.03073 8.03096 9.64612 7.56942 10.3384 7.33865C10.9538 7.10788 11.723 6.95403 12.8 6.87711C13.8769 6.80018 14.2615 6.80018 17.0307 6.80018C19.8 6.80018 20.1846 6.80018 21.2615 6.87711C22.3384 6.87711 23.1077 7.10788 23.723 7.33865C24.4153 7.56942 25.0307 7.95404 25.5692 8.4925C26.0307 9.03096 26.4923 9.64635 26.723 10.3387ZM24.9538 23.1079C25.1077 22.7233 25.2615 22.1848 25.3384 21.1848C25.4153 20.1079 25.4153 19.7233 25.4153 17.0312V17.031V17.0308C25.4153 14.2617 25.4153 13.954 25.3384 12.8771C25.2615 11.8771 25.1077 11.3387 24.9538 10.954C24.8 10.5694 24.4923 10.1079 24.1846 9.80019C23.8769 9.4925 23.4923 9.18481 23.0307 9.03096C22.6461 8.87712 22.1077 8.72327 21.1077 8.64635C20.0307 8.56942 19.6461 8.56942 16.9539 8.56942H16.9538H16.9537C14.1846 8.56942 13.8769 8.56942 12.8 8.64635C11.8 8.72327 11.2615 8.87712 10.8769 9.03096C10.4923 9.18481 10.0307 9.4925 9.72304 9.80019C9.41535 10.1079 9.10765 10.4925 8.95381 10.954C8.79996 11.3387 8.64612 11.8771 8.56919 12.8771C8.49227 13.954 8.49227 14.3387 8.49227 17.031C8.49227 19.8002 8.49227 20.1079 8.56919 21.1848C8.64612 22.1848 8.79996 22.7233 8.95381 23.1079C9.10765 23.5694 9.41535 23.954 9.72304 24.2617C10.0307 24.5694 10.4153 24.8771 10.8769 25.031C11.2615 25.1848 11.8 25.3387 12.8 25.4156C13.8769 25.4925 14.2615 25.4925 16.9536 25.4925H16.9538H16.954C19.7231 25.4925 20.0308 25.4925 21.1077 25.4156C22.1077 25.3387 22.6461 25.1848 23.0307 25.031C23.8769 24.7233 24.6461 24.031 24.9538 23.1079ZM17.0308 11.7999C14.1077 11.7999 11.8 14.1845 11.8 17.0307C11.8 19.8768 14.1847 22.2615 17.0308 22.2615C19.9539 22.2615 22.2616 19.8768 22.2616 17.0307C22.2616 14.1845 19.877 11.7999 17.0308 11.7999ZM17.0308 20.4153C15.1847 20.4153 13.6462 18.8768 13.6462 17.0307C13.6462 15.1845 15.1847 13.6461 17.0308 13.6461C18.877 13.6461 20.4154 15.1845 20.4154 17.0307C20.4154 18.8768 18.877 20.4153 17.0308 20.4153ZM22.4923 12.8003C23.1846 12.8003 23.723 12.2618 23.723 11.5695C23.723 10.8772 23.1077 10.3388 22.4923 10.3388C21.8 10.3388 21.2615 10.8772 21.2615 11.5695C21.2615 12.2618 21.8 12.8003 22.4923 12.8003Z" fill="white"/>
</svg>
