<svg width="34" height="34" viewBox="0 0 34 34" fill="none" xmlns="http://www.w3.org/2000/svg">
<path fill-rule="evenodd" clip-rule="evenodd" d="M6.8 0C3.04446 0 0 3.04446 0 6.8V27.2C0 30.9555 3.04446 34 6.8 34H27.2C30.9555 34 34 30.9555 34 27.2V6.8C34 3.04446 30.9555 0 27.2 0H6.8ZM25.4192 11.0385C26.1885 10.9615 27.0346 10.7308 27.7269 10.4231C27.1885 11.2692 26.4962 11.9615 25.4192 12.6538V13.1923C25.4192 18.5769 21.3423 24.7308 13.8808 24.7308C11.5731 24.7308 9.41923 24.0385 7.65 22.8846C8.03462 22.9615 8.34231 22.9615 8.65 22.9615C10.5731 22.9615 12.3423 22.2692 13.7269 21.1923C11.9577 21.1154 10.4962 19.9615 9.95769 18.3462C10.1885 18.4231 10.4962 18.4231 10.7269 18.4231C11.1115 18.4231 11.4962 18.3462 11.8038 18.2692C9.95769 17.8846 8.57308 16.2692 8.57308 14.2692V14.1923C9.11154 14.5 9.72692 14.7308 10.4192 14.7308C9.34231 13.9615 8.65 12.7308 8.65 11.3462C8.65 10.5769 8.80385 9.88462 9.18846 9.26923C11.1885 11.7308 14.1885 13.3462 17.5731 13.5C17.4962 13.1923 17.4962 12.8846 17.4962 12.5769C17.4962 10.3462 19.3423 8.5 21.5731 8.5C22.8038 8.5 23.8039 9.03846 24.5731 9.80769C25.4962 9.57692 26.4192 9.26923 27.1885 8.80769C26.8808 9.73077 26.2654 10.5 25.4192 11.0385Z" fill="white"/>
</svg>
